<?xml version="1.0" standalone="no"?>
<!DOCTYPE svg PUBLIC "-//W3C//DTD SVG 20010904//EN"
 "http://www.w3.org/TR/2001/REC-SVG-20010904/DTD/svg10.dtd">
<svg version="1.0" xmlns="http://www.w3.org/2000/svg"
 width="449.000000pt" height="556.000000pt" viewBox="0 0 449.000000 556.000000"
 preserveAspectRatio="xMidYMid meet">

<g transform="translate(0.000000,556.000000) scale(0.100000,-0.100000)"
fill="#000000" stroke="none">
<path d="M2130 5195 c-187 -98 -230 -167 -246 -400 -4 -55 -11 -111 -16 -124
-7 -19 -4 -27 11 -37 10 -7 22 -30 26 -51 l8 -38 13 60 c7 33 13 74 14 91 0
23 6 33 20 37 15 4 20 0 20 -16 0 -21 1 -21 25 5 14 15 25 34 25 42 0 8 11 23
25 33 14 10 45 32 68 49 48 36 119 56 191 54 60 -1 81 -15 117 -77 31 -52 26
-63 -25 -63 -21 0 -40 -12 -73 -46 -48 -52 -55 -83 -39 -182 4 -28 1 -35 -20
-44 -18 -9 -30 -8 -48 2 -30 15 -58 7 -50 -15 4 -11 0 -15 -16 -15 -36 0 -17
-25 21 -27 19 -2 45 -5 59 -7 14 -2 30 -5 35 -6 6 -1 -1 -6 -14 -11 -32 -13
-23 -19 33 -22 37 -1 46 -5 46 -20 0 -10 -4 -16 -9 -12 -6 3 -25 -1 -43 -9
l-33 -14 28 -1 c15 -1 27 -5 27 -11 0 -5 9 -10 21 -10 18 0 20 -4 15 -26 -6
-24 -5 -26 18 -22 30 6 25 -14 -10 -37 -22 -14 -25 -14 -44 5 -11 11 -20 25
-20 30 0 6 -12 9 -27 6 -16 -2 -31 -5 -35 -5 -13 -2 -9 -29 7 -44 8 -8 11 -18
7 -21 -3 -4 1 -4 11 0 16 6 16 7 1 19 -16 11 -15 12 4 17 22 6 34 -4 45 -34 7
-21 -10 -26 -92 -30 -45 -3 -56 0 -65 17 -6 11 -19 26 -28 33 -10 7 -18 20
-18 29 0 12 -7 14 -30 10 -28 -6 -32 -3 -56 45 -19 37 -23 53 -14 58 9 6 9 13
1 26 -8 14 -11 15 -11 4 0 -9 -6 -5 -15 10 -21 37 -22 40 -38 95 -15 49 -15
49 -16 15 -1 -20 8 -61 19 -93 11 -31 20 -63 20 -71 0 -7 19 -51 42 -97 54
-109 133 -189 205 -207 64 -17 93 -37 93 -66 0 -32 7 -36 41 -24 16 5 37 7 47
2 9 -4 20 -6 25 -6 8 2 9 -3 9 -48 0 -55 -2 -60 -22 -60 -11 0 -33 -18 -52
-45 -36 -48 -48 -55 -48 -27 0 32 -35 55 -74 49 -38 -6 -93 23 -154 82 -42 41
-55 76 -47 129 6 41 5 43 -14 33 -11 -6 -41 -38 -67 -71 -26 -33 -53 -60 -60
-60 -7 0 -22 -9 -32 -20 -10 -11 -63 -38 -117 -60 -53 -22 -111 -52 -127 -65
-24 -20 -41 -25 -84 -25 -59 0 -114 -22 -114 -45 0 -7 -22 -36 -49 -64 -85
-87 -120 -135 -156 -217 -20 -43 -45 -97 -55 -120 -11 -23 -20 -57 -20 -77 0
-20 -7 -52 -16 -71 -10 -21 -14 -44 -10 -60 l6 -26 40 26 c35 23 47 26 109 22
81 -4 123 -28 131 -74 l5 -29 650 3 c358 1 750 5 871 8 l222 6 6 37 c13 81
110 161 196 161 36 0 80 -32 80 -58 0 -6 39 -51 88 -99 48 -48 87 -91 87 -95
0 -3 3 -10 8 -14 14 -14 7 -21 -38 -38 -33 -13 -62 -37 -111 -94 -80 -94 -89
-100 -109 -68 -24 37 -35 85 -35 158 0 37 -4 70 -10 73 -6 4 -10 -6 -11 -22
-1 -15 -3 -41 -5 -58 -8 -67 -10 -581 -2 -597 5 -11 5 -25 0 -35 -5 -10 -6
-42 -3 -70 4 -29 4 -53 -1 -53 -5 0 -5 -8 -1 -17 5 -10 7 -34 5 -53 -2 -19 -4
-60 -5 -90 -1 -30 -6 -58 -12 -62 -6 -5 -5 -8 3 -8 8 0 11 -7 8 -17 -12 -41
-14 -73 -4 -73 5 0 8 -7 4 -15 -3 -8 -1 -15 4 -15 5 0 3 -19 -5 -41 -9 -25
-12 -46 -6 -53 5 -6 10 -30 13 -53 3 -39 1 -43 -23 -48 -29 -7 -127 -9 -649
-19 -179 -4 -368 -9 -420 -11 -52 -2 -237 -5 -411 -6 l-317 -2 -6 -36 c-3 -20
-6 -54 -6 -76 0 -22 -9 -78 -19 -125 -11 -47 -27 -123 -36 -170 -9 -47 -23
-102 -31 -123 -18 -48 -18 -52 3 -73 21 -20 20 10 6 -469 -6 -203 -8 -401 -5
-440 l7 -70 342 -3 342 -2 11 37 c5 21 28 106 49 188 62 235 96 340 114 343
30 6 56 -17 62 -56 10 -58 64 -301 81 -362 8 -30 30 -76 47 -103 l32 -47 350
2 350 3 3 100 c5 127 -15 553 -35 755 -25 256 -28 281 -56 377 -22 76 -27 115
-30 225 l-2 133 123 3 c70 1 122 7 122 12 0 6 5 9 11 7 15 -3 17 15 22 144 3
58 10 115 16 127 6 11 11 32 11 46 0 14 4 26 9 26 16 0 49 103 56 171 7 82 24
178 36 207 6 16 17 22 38 22 61 0 143 41 203 101 60 60 73 89 38 89 -11 0 -20
5 -20 11 0 5 -4 8 -9 5 -5 -4 -7 2 -4 13 3 10 0 22 -6 25 -6 4 -11 2 -11 -3 0
-6 -4 -11 -9 -11 -13 0 -23 48 -15 73 7 22 7 22 15 2 7 -19 8 -19 8 3 1 15 5
21 13 16 7 -5 8 -3 4 5 -5 7 -1 20 7 29 14 16 24 49 33 102 3 15 -6 45 -19 70
-58 111 -111 198 -148 248 -23 30 -43 69 -46 90 -3 20 -13 50 -21 67 -8 16
-32 79 -54 139 -41 116 -85 179 -200 285 -27 24 -48 50 -48 57 0 7 -14 21 -30
29 -38 20 -193 65 -222 65 -11 0 -63 20 -114 45 -51 24 -106 47 -121 51 -30 7
-83 45 -154 108 -59 54 -62 91 -15 195 20 43 36 85 36 92 0 8 7 28 16 44 52
94 64 123 64 151 0 17 5 45 11 63 7 21 8 36 1 44 -5 6 -13 50 -17 97 -8 109
-39 241 -70 305 -20 41 -36 57 -92 91 -80 49 -178 84 -231 84 -24 -1 -67 -16
-122 -45z m366 -469 c28 -22 7 -38 -34 -27 -20 6 -32 6 -32 0 0 -5 -7 -9 -15
-9 -36 0 9 49 46 50 8 0 24 -6 35 -14z m-13 -88 c10 -5 24 -7 31 -5 8 3 12 -8
13 -32 2 -37 9 -92 13 -101 7 -14 -4 -46 -21 -61 -10 -9 -19 -20 -19 -24 0
-21 -54 -115 -66 -115 -32 0 -9 70 27 82 24 8 -1 53 -60 113 -32 32 -57 65
-54 71 2 7 0 28 -5 48 -9 29 -7 36 6 40 23 6 113 -4 135 -16z m88 -85 c-12
-20 -14 -14 -5 12 4 9 9 14 11 11 3 -2 0 -13 -6 -23z m989 -1723 c0 -6 -7 -10
-17 -10 -9 0 -13 3 -10 7 4 3 1 13 -6 21 -10 13 -9 14 11 3 12 -6 22 -16 22
-21z m-53 4 c14 -13 14 -17 2 -25 -8 -5 -23 -9 -34 -9 -12 0 -27 -6 -34 -12
-10 -11 -11 -10 -6 4 4 10 16 20 27 24 11 3 17 12 14 20 -7 19 12 18 31 -2z
m-67 -276 c6 -35 16 -71 21 -81 13 -23 0 -46 -13 -23 -5 9 -13 14 -18 11 -5
-3 -10 33 -12 79 -2 46 0 82 3 80 4 -2 12 -32 19 -66z m10 -144 c0 -8 -4 -12
-10 -9 -5 3 -10 10 -10 16 0 5 5 9 10 9 6 0 10 -7 10 -16z m-103 -246 c-3 -8
-6 -5 -6 6 -1 11 2 17 5 13 3 -3 4 -12 1 -19z"/>
<path d="M2455 4620 c-19 -8 -19 -9 2 -9 12 -1 25 4 28 9 7 12 -2 12 -30 0z"/>
<path d="M2045 4750 c-3 -5 1 -10 10 -10 9 0 13 5 10 10 -3 6 -8 10 -10 10 -2
0 -7 -4 -10 -10z"/>
<path d="M2092 4751 c-10 -6 -3 -10 23 -15 34 -7 55 -3 44 8 -10 11 -55 15
-67 7z"/>
<path d="M2074 4689 c-17 -5 -36 -15 -42 -21 -8 -10 6 -13 66 -13 86 0 110 8
91 31 -13 16 -67 17 -115 3z"/>
<path d="M2140 4630 c-13 -8 -13 -10 2 -10 9 0 20 5 23 10 8 13 -5 13 -25 0z"/>
<path d="M2083 4484 c-28 -23 -43 -44 -43 -59 0 -23 22 -50 33 -39 3 3 21 -6
40 -20 19 -14 38 -26 43 -26 4 0 -2 7 -14 16 -32 22 -27 31 26 42 l47 10 -56
1 c-53 1 -57 3 -62 27 -3 18 3 34 20 55 34 39 17 36 -34 -7z"/>
<path d="M2180 4350 c0 -5 5 -10 11 -10 5 0 7 5 4 10 -3 6 -8 10 -11 10 -2 0
-4 -4 -4 -10z"/>
<path d="M2316 4245 c4 -8 12 -15 20 -15 20 0 17 7 -6 20 -16 9 -18 8 -14 -5z"/>
<path d="M908 2594 c-24 -12 -38 -34 -23 -34 16 0 55 26 55 37 0 16 2 16 -32
-3z"/>
<path d="M876 2524 c-3 -9 -6 -25 -6 -36 0 -17 -3 -18 -15 -8 -8 7 -15 9 -16
4 -1 -5 -5 2 -10 16 -6 17 -7 8 -4 -33 6 -70 25 -118 60 -152 32 -33 52 -23
25 13 -16 22 -20 46 -22 119 -2 51 -4 93 -4 93 -1 0 -5 -7 -8 -16z"/>
</g>
</svg>
